<svg aria-hidden="true" style="position: absolute; width: 0; height: 0; overflow: hidden;" version="1.1" xmlns="http://www.w3.org/2000/svg" xmlns:xlink="http://www.w3.org/1999/xlink">
<defs>
<symbol id="icon-controller-play" viewBox="0 0 20 20">
<title>controller-play</title>
<path d="M15 10.001c0 0.299-0.305 0.514-0.305 0.514l-8.561 5.303c-0.624 0.409-1.134 0.106-1.134-0.669v-10.297c0-0.777 0.51-1.078 1.135-0.67l8.561 5.305c-0.001 0 0.304 0.215 0.304 0.514z"></path>
</symbol>
<symbol id="icon-cw" viewBox="0 0 20 20">
<title>cw</title>
<path d="M19.315 10h-2.372v-0.205c-0.108-4.434-3.724-7.996-8.169-7.996-4.515 0-8.174 3.672-8.174 8.201s3.659 8.199 8.174 8.199c1.898 0 3.645-0.65 5.033-1.738l-1.406-1.504c-1.016 0.748-2.27 1.193-3.627 1.193-3.386 0-6.131-2.754-6.131-6.15s2.745-6.15 6.131-6.15c3.317 0 6.018 2.643 6.125 5.945v0.205h-2.672l3.494 3.894 3.594-3.894z"></path>
</symbol>
<symbol id="icon-whatsapp" viewBox="0 0 32 32">
<title>whatsapp</title>
<path d="M27.281 4.65c-2.994-3-6.975-4.65-11.219-4.65-8.738 0-15.85 7.112-15.85 15.856 0 2.794 0.731 5.525 2.119 7.925l-2.25 8.219 8.406-2.206c2.319 1.262 4.925 1.931 7.575 1.931h0.006c0 0 0 0 0 0 8.738 0 15.856-7.113 15.856-15.856 0-4.238-1.65-8.219-4.644-11.219zM16.069 29.050v0c-2.369 0-4.688-0.637-6.713-1.837l-0.481-0.288-4.987 1.306 1.331-4.863-0.313-0.5c-1.325-2.094-2.019-4.519-2.019-7.012 0-7.269 5.912-13.181 13.188-13.181 3.519 0 6.831 1.375 9.319 3.862 2.488 2.494 3.856 5.8 3.856 9.325-0.006 7.275-5.919 13.188-13.181 13.188zM23.294 19.175c-0.394-0.2-2.344-1.156-2.706-1.288s-0.625-0.2-0.894 0.2c-0.262 0.394-1.025 1.288-1.256 1.556-0.231 0.262-0.462 0.3-0.856 0.1s-1.675-0.619-3.188-1.969c-1.175-1.050-1.975-2.35-2.206-2.744s-0.025-0.613 0.175-0.806c0.181-0.175 0.394-0.463 0.594-0.694s0.262-0.394 0.394-0.662c0.131-0.262 0.069-0.494-0.031-0.694s-0.894-2.15-1.219-2.944c-0.319-0.775-0.65-0.669-0.894-0.681-0.231-0.012-0.494-0.012-0.756-0.012s-0.694 0.1-1.056 0.494c-0.363 0.394-1.387 1.356-1.387 3.306s1.419 3.831 1.619 4.1c0.2 0.262 2.794 4.269 6.769 5.981 0.944 0.406 1.681 0.65 2.256 0.837 0.95 0.3 1.813 0.256 2.494 0.156 0.762-0.113 2.344-0.956 2.675-1.881s0.331-1.719 0.231-1.881c-0.094-0.175-0.356-0.275-0.756-0.475z"></path>
</symbol>
<symbol id="reload" viewBox="0 0 32 32">
<title>reload</title>
<path d="M35.3 12.7C32.4 9.8 28.42 8 24 8 15.16 8 8.02 15.16 8.02 24S15.16 40 24 40c7.46 0 13.68-5.1 15.46-12H35.3c-1.64 4.66-6.08 8-11.3 8-6.62 0-12-5.38-12-12s5.38-12 12-12c3.32 0 6.28 1.38 8.44 3.56L26 22h14V8l-4.7 4.7z"></path>
</symbol>
<symbol id="reload" viewBox="0 0 32 32">
<title>reload</title>
    <svg width="48" height="48" viewBox="0 0 48 48" fill="#fff" xmlns="http://www.w3.org/2000/svg">
                                        <path d="M35.3 12.7C32.4 9.8 28.42 8 24 8 15.16 8 8.02 15.16 8.02 24S15.16 40 
                                            24 40c7.46 0 13.68-5.1 15.46-12H35.3c-1.64 4.66-6.08 8-11.3 8-6.62 0-12-5.38-12-12s5.38-12 
                                            12-12c3.32 0 6.28 1.38 8.44 3.56L26 22h14V8l-4.7 4.7z" id="Shape">
                                        </path>
                                    </svg>
</symbol>
<symbol id="settings" viewBox="0 0 32 32">
<title>settings</title><rect fill="#F2F2F2" width="24" height="24" rx="3"></rect>
                                <path d="M9.34 8.694a4.164 4.164 0 0 0-1.606 3.289c0 1.338.63 2.528 1.61 3.292l-1.46 
                                2.527a7.065 7.065 0 0 1-3.052-5.82c0-2.41 1.206-4.54 3.048-5.816l1.46 2.528zm6.713 
                                2.859c-.217-2.079-1.992-3.739-4.148-3.739-.578 0-1.128.116-1.628.329L8.819 5.617a7.042 
                                7.042 0 0 1 3.086-.704c3.76 0 6.834 2.958 7.059 6.64h-2.91zm-1.065.43a3.083 3.083 
                                0 1 1-6.166 0 3.083 3.083 0 0 1 6.166 0zm-6.164 6.364l1.458-2.523a4.153 4.153 0 0 0 1.623.322 
                                4.154 4.154 0 0 0 4.12-3.524h2.922a7.062 7.062 0 0 1-7.042 6.426c-1.105 0-2.15-.25-3.081-.7zm11.197-7.21a7.88 7.88 
                                0 0 0-.404-1.824l.286-.12a.527.527 0 0 0-.403-.973l-.29.12a8.176 8.176 0 0 0-1.197-1.77l.231-.23a.526.526 
                                0 1 0-.744-.744l-.234.234a8.17 8.17 0 0 0-1.775-1.18l.13-.31a.526.526 0 1 0-.972-.403l-.12.313a8.463 8.463 
                                0 0 0-1.995-.405v-.35A.533.533 0 0 0 12 2.97a.533.533 0 0 0-.535.526v.338a8.02 8.02 0 0 0-2.173.416l-.13-.313a.526.526 
                                0 0 0-.972.402l.129.311a8.171 8.171 0 0 0-1.775 1.18l-.235-.235a.526.526 0 0 0-.743.744l.23.231A8.175 8.175 
                                0 0 0 4.6 8.34l-.29-.12a.526.526 0 0 0-.403.971l.285.122a7.882 7.882 0 0 0-.404 1.824h-.322a.533.533 0 0 0-.526.534c0 
                                .29.235.535.526.535h.28c.02.831.166 1.624.418 2.378l-.257.1a.523.523 0 1 0 .402.968l.252-.105a8.17 8.17 0 0 0 1.191 
                                1.797l-.187.187a.526.526 0 1 0 .744.743l.184-.183a8.173 8.173 0 0 0 1.792 1.208l-.096.231a.526.526 0 1 0 
                                .972.403l.096-.23c.698.24 1.436.387 2.208.428v.243c0 .29.244.526.535.526.29 0 .534-.235.534-.526v-.253a8.012 
                                8.012 0 0 0 2.03-.417l.09.229a.523.523 0 1 0 .967-.403l-.096-.231a8.172 8.172 0 0 0 1.792-1.208l.184.183a.526.526 
                                0 1 0 .743-.744l-.187-.186a8.174 8.174 0 0 0 1.191-1.798l.252.104a.526.526 0 1 0 .403-.971l-.257-.095a8.074 8.074 
                                0 0 0 .417-2.378h.281c.29 0 .526-.244.526-.535a.533.533 0 0 0-.526-.534h-.323z" fill="#818B90"></path>
</symbol>
<symbol id="menu" viewBox="0 0 32 32">
<title>menu</title><rect fill="#f2f2f2" height="24" rx="3" width="24"></rect>
                                    <path d="m12 15.5c.825 0 1.5.675 1.5 1.5s-.675 1.5-1.5 1.5-1.5-.675-1.5-1.5.675-1.5 1.5-1.5zm0-2c-.825 
                                    0-1.5-.675-1.5-1.5s.675-1.5 1.5-1.5 1.5.675 1.5 1.5-.675 1.5-1.5 1.5zm0-5c-.825 
                                    0-1.5-.675-1.5-1.5s.675-1.5 1.5-1.5 1.5.675 1.5 1.5-.675 1.5-1.5 1.5z" fill="#818b90">
                                    </path></symbol>
</defs>
</svg>

    
                                    



                                    



                                
